<svg width="32" height="32" viewBox="0 0 32 32" fill="none" xmlns="http://www.w3.org/2000/svg">
                        <path d="M16 2C8.268 2 2 8.268 2 16C2 23.732 8.268 30 16 30C23.732 30 30 23.732 30 16C30 8.268 23.732 2 16 2ZM16 28C9.373 28 4 22.627 4 16C4 9.373 9.373 4 16 4C22.627 4 28 9.373 28 16C28 22.627 22.627 28 16 28Z" fill="url(#logoGradient)"></path>
                        <path d="M16 8C11.582 8 8 11.582 8 16C8 20.418 11.582 24 16 24C20.418 24 24 20.418 24 16C24 11.582 20.418 8 16 8ZM16 22C12.686 22 10 19.314 10 16C10 12.686 12.686 10 16 10C19.314 10 22 12.686 22 16C22 19.314 19.314 22 16 22Z" fill="url(#logoGradient)"></path>
                        <path d="M16 14C14.895 14 14 14.895 14 16C14 17.105 14.895 18 16 18C17.105 18 18 17.105 18 16C18 14.895 17.105 14 16 14Z" fill="url(#logoGradient)"></path>
                        <defs>
                            <linearGradient id="logoGradient" x1="2" y1="2" x2="30" y2="30" gradientUnits="userSpaceOnUse">
                                <stop stop-color="#8C67EF"></stop>
                                <stop offset="1" stop-color="#4F9EFF"></stop>
                            </linearGradient>
                        </defs>
                    </svg>