<?xml version="1.0" encoding="UTF-8"?>
<svg width="24" height="24" viewBox="0 0 24 24" fill="none" xmlns="http://www.w3.org/2000/svg">
  <path d="M11 4H4C3.46957 4 2.96086 4.21071 2.58579 4.58579C2.21071 4.96086 2 5.46957 2 6V20C2 20.5304 2.21071 21.0391 2.58579 21.4142C2.96086 21.7893 3.46957 22 4 22H18C18.5304 22 19.0391 21.7893 19.4142 21.4142C19.7893 21.0391 20 20.5304 20 20V13" stroke="url(#editGradient)" stroke-width="2" stroke-linecap="round" stroke-linejoin="round"/>
  <path d="M18.5 2.50001C18.8978 2.10219 19.4374 1.87868 20 1.87868C20.5626 1.87868 21.1022 2.10219 21.5 2.50001C21.8978 2.89784 22.1213 3.4374 22.1213 4.00001C22.1213 4.56262 21.8978 5.10219 21.5 5.50001L12 15L8 16L9 12L18.5 2.50001Z" fill="url(#editFillGradient)" stroke="url(#editGradient)" stroke-width="2" stroke-linecap="round" stroke-linejoin="round"/>
  <defs>
    <linearGradient id="editGradient" x1="2" y1="1.87868" x2="22.1213" y2="22" gradientUnits="userSpaceOnUse">
      <stop stop-color="#8C67EF"/>
      <stop offset="1" stop-color="#4F9EFF"/>
    </linearGradient>
    <linearGradient id="editFillGradient" x1="8" y1="1.87868" x2="22.1213" y2="16" gradientUnits="userSpaceOnUse">
      <stop stop-color="#8C67EF" stop-opacity="0.3"/>
      <stop offset="1" stop-color="#4F9EFF" stop-opacity="0.3"/>
    </linearGradient>
  </defs>
</svg>