<?xml version="1.0" encoding="UTF-8"?>
<svg width="24" height="24" viewBox="0 0 24 24" fill="none" xmlns="http://www.w3.org/2000/svg">
  <path d="M4 19.5V4.5C4 4.22386 4.22386 4 4.5 4H6.5C6.77614 4 7 4.22386 7 4.5V19.5C7 19.7761 6.77614 20 6.5 20H4.5C4.22386 20 4 19.7761 4 19.5Z" stroke="url(#libraryGradient)" stroke-width="2" stroke-linecap="round" stroke-linejoin="round"/>
  <path d="M9 19.5V4.5C9 4.22386 9.22386 4 9.5 4H11.5C11.7761 4 12 4.22386 12 4.5V19.5C12 19.7761 11.7761 20 11.5 20H9.5C9.22386 20 9 19.7761 9 19.5Z" stroke="url(#libraryGradient)" stroke-width="2" stroke-linecap="round" stroke-linejoin="round"/>
  <path d="M14 19.5V4.5C14 4.22386 14.2239 4 14.5 4H16.5C16.7761 4 17 4.22386 17 4.5V19.5C17 19.7761 16.7761 20 16.5 20H14.5C14.2239 20 14 19.7761 14 19.5Z" stroke="url(#libraryGradient)" stroke-width="2" stroke-linecap="round" stroke-linejoin="round"/>
  <path d="M19 19.5V4.5C19 4.22386 19.2239 4 19.5 4H20.5C20.7761 4 21 4.22386 21 4.5V19.5C21 19.7761 20.7761 20 20.5 20H19.5C19.2239 20 19 19.7761 19 19.5Z" stroke="url(#libraryGradient)" stroke-width="2" stroke-linecap="round" stroke-linejoin="round"/>
  <defs>
    <linearGradient id="libraryGradient" x1="4" y1="4" x2="21" y2="20" gradientUnits="userSpaceOnUse">
      <stop stop-color="#8C67EF"/>
      <stop offset="1" stop-color="#4F9EFF"/>
    </linearGradient>
  </defs>
</svg>