<?xml version="1.0" encoding="UTF-8"?>
<svg width="24" height="24" viewBox="0 0 24 24" fill="none" xmlns="http://www.w3.org/2000/svg">
  <path d="M9 18V5L21 3V16" stroke="url(#playlistGradient)" stroke-width="2" stroke-linecap="round" stroke-linejoin="round"/>
  <path d="M6 21C7.65685 21 9 19.6569 9 18C9 16.3431 7.65685 15 6 15C4.34315 15 3 16.3431 3 18C3 19.6569 4.34315 21 6 21Z" fill="url(#playlistFillGradient)" stroke="url(#playlistGradient)" stroke-width="2" stroke-linecap="round" stroke-linejoin="round"/>
  <path d="M18 19C19.6569 19 21 17.6569 21 16C21 14.3431 19.6569 13 18 13C16.3431 13 15 14.3431 15 16C15 17.6569 16.3431 19 18 19Z" fill="url(#playlistFillGradient)" stroke="url(#playlistGradient)" stroke-width="2" stroke-linecap="round" stroke-linejoin="round"/>
  <defs>
    <linearGradient id="playlistGradient" x1="3" y1="3" x2="21" y2="21" gradientUnits="userSpaceOnUse">
      <stop stop-color="#8C67EF"/>
      <stop offset="1" stop-color="#4F9EFF"/>
    </linearGradient>
    <linearGradient id="playlistFillGradient" x1="3" y1="13" x2="21" y2="21" gradientUnits="userSpaceOnUse">
      <stop stop-color="#8C67EF" stop-opacity="0.3"/>
      <stop offset="1" stop-color="#4F9EFF" stop-opacity="0.3"/>
    </linearGradient>
  </defs>
</svg>