<?xml version="1.0" encoding="UTF-8"?>
<svg xmlns="http://www.w3.org/2000/svg" style="display: none;">
  <defs>
    <!-- Home Icon -->
    <symbol id="home" viewBox="0 0 24 24" fill="none" stroke="currentColor" stroke-width="2">
      <path d="m3 9 9-7 9 7v11a2 2 0 0 1-2 2H5a2 2 0 0 1-2-2z"/>
      <polyline points="9,22 9,12 15,12 15,22"/>
    </symbol>
    
    <!-- Search Icon -->
    <symbol id="search" viewBox="0 0 24 24" fill="none" stroke="currentColor" stroke-width="2">
      <circle cx="11" cy="11" r="8"/>
      <path d="m21 21-4.35-4.35"/>
    </symbol>
    
    <!-- Library Icon -->
    <symbol id="library" viewBox="0 0 24 24" fill="none" stroke="currentColor" stroke-width="2">
      <path d="m16 6 4 14"/>
      <path d="M12 6v14"/>
      <path d="M8 8v12"/>
      <path d="M4 4v16"/>
    </symbol>
    
    <!-- Play Icon -->
    <symbol id="play" viewBox="0 0 24 24" fill="none" stroke="currentColor" stroke-width="2">
      <polygon points="5,3 19,12 5,21"/>
    </symbol>
    
    <!-- Pause Icon -->
    <symbol id="pause" viewBox="0 0 24 24" fill="none" stroke="currentColor" stroke-width="2">
      <rect x="6" y="4" width="4" height="16"/>
      <rect x="14" y="4" width="4" height="16"/>
    </symbol>
    
    <!-- Upload Icon -->
    <symbol id="upload" viewBox="0 0 24 24" fill="none" stroke="currentColor" stroke-width="2">
      <path d="M21 15v4a2 2 0 0 1-2 2H5a2 2 0 0 1-2-2v-4"/>
      <polyline points="7,10 12,5 17,10"/>
      <line x1="12" y1="5" x2="12" y2="15"/>
    </symbol>
    
    <!-- Close Icon -->
    <symbol id="close" viewBox="0 0 24 24" fill="none" stroke="currentColor" stroke-width="2">
      <line x1="18" y1="6" x2="6" y2="18"/>
      <line x1="6" y1="6" x2="18" y2="18"/>
    </symbol>
    
    <!-- Share Icon -->
    <symbol id="share" viewBox="0 0 24 24" fill="none" stroke="currentColor" stroke-width="2">
      <circle cx="18" cy="5" r="3"/>
      <circle cx="6" cy="12" r="3"/>
      <circle cx="18" cy="19" r="3"/>
      <line x1="8.59" y1="13.51" x2="15.42" y2="17.49"/>
      <line x1="15.41" y1="6.51" x2="8.59" y2="10.49"/>
    </symbol>
    
    <!-- Edit Icon -->
    <symbol id="edit" viewBox="0 0 24 24" fill="none" stroke="currentColor" stroke-width="2">
      <path d="M11 4H4a2 2 0 0 0-2 2v14a2 2 0 0 0 2 2h14a2 2 0 0 0 2-2v-7"/>
      <path d="M18.5 2.5a2.121 2.121 0 0 1 3 3L12 15l-4 1 1-4 9.5-9.5z"/>
    </symbol>
    
    <!-- User Icon -->
    <symbol id="user" viewBox="0 0 24 24" fill="none" stroke="currentColor" stroke-width="2">
      <path d="M20 21v-2a4 4 0 0 0-4-4H8a4 4 0 0 0-4 4v2"/>
      <circle cx="12" cy="7" r="4"/>
    </symbol>
    
    <!-- Logout Icon -->
    <symbol id="logout" viewBox="0 0 24 24" fill="none" stroke="currentColor" stroke-width="2">
      <path d="M9 21H5a2 2 0 0 1-2-2V5a2 2 0 0 1 2-2h4"/>
      <polyline points="16,17 21,12 16,7"/>
      <line x1="21" y1="12" x2="9" y2="12"/>
    </symbol>
    
    <!-- Menu Icon -->
    <symbol id="menu" viewBox="0 0 24 24" fill="none" stroke="currentColor" stroke-width="2">
      <line x1="3" y1="6" x2="21" y2="6"/>
      <line x1="3" y1="12" x2="21" y2="12"/>
      <line x1="3" y1="18" x2="21" y2="18"/>
    </symbol>
    
    <!-- Queue Icon -->
    <symbol id="queue" viewBox="0 0 24 24" fill="none" stroke="currentColor" stroke-width="2">
      <line x1="8" y1="6" x2="21" y2="6"/>
      <line x1="8" y1="12" x2="21" y2="12"/>
      <line x1="8" y1="18" x2="21" y2="18"/>
      <line x1="3" y1="6" x2="3.01" y2="6"/>
      <line x1="3" y1="12" x2="3.01" y2="12"/>
      <line x1="3" y1="18" x2="3.01" y2="18"/>
    </symbol>
    
    <!-- Volume Icon -->
    <symbol id="volume" viewBox="0 0 24 24" fill="none" stroke="currentColor" stroke-width="2">
      <polygon points="11,5 6,9 2,9 2,15 6,15 11,19"/>
      <path d="m19.07 4.93-2.12 2.12"/>
      <path d="m15.02 10.98 2.12-2.12"/>
      <path d="m19.07 19.07-2.12-2.12"/>
    </symbol>
    
    <!-- Activity Icon -->
    <symbol id="activity" viewBox="0 0 24 24" fill="none" stroke="currentColor" stroke-width="2">
      <polyline points="22,12 18,12 15,21 9,3 6,12 2,12"/>
    </symbol>
    
    <!-- Add Icon -->
    <symbol id="add" viewBox="0 0 24 24" fill="none" stroke="currentColor" stroke-width="2">
      <line x1="12" y1="5" x2="12" y2="19"/>
      <line x1="5" y1="12" x2="19" y2="12"/>
    </symbol>
    
    <!-- Check Icon -->
    <symbol id="check" viewBox="0 0 24 24" fill="none" stroke="currentColor" stroke-width="2">
      <polyline points="20,6 9,17 4,12"/>
    </symbol>
    
    <!-- Shuffle Icon -->
    <symbol id="shuffle" viewBox="0 0 24 24" fill="none" stroke="currentColor" stroke-width="2">
      <polyline points="16,3 21,3 21,8"/>
      <line x1="4" y1="20" x2="21" y2="3"/>
      <polyline points="21,16 21,21 16,21"/>
      <line x1="15" y1="15" x2="21" y2="21"/>
      <line x1="4" y1="4" x2="9" y2="9"/>
    </symbol>
    
    <!-- Repeat Icon -->
    <symbol id="repeat" viewBox="0 0 24 24" fill="none" stroke="currentColor" stroke-width="2">
      <polyline points="17,1 21,5 17,9"/>
      <path d="M3 11V9a4 4 0 0 1 4-4h14"/>
      <polyline points="7,23 3,19 7,15"/>
      <path d="M21 13v2a4 4 0 0 1-4 4H3"/>
    </symbol>
    
    <!-- Next Icon -->
    <symbol id="next" viewBox="0 0 24 24" fill="none" stroke="currentColor" stroke-width="2">
      <polygon points="5,4 15,12 5,20"/>
      <line x1="19" y1="5" x2="19" y2="19"/>
    </symbol>
    
    <!-- Previous Icon -->
    <symbol id="previous" viewBox="0 0 24 24" fill="none" stroke="currentColor" stroke-width="2">
      <polygon points="19,20 9,12 19,4"/>
      <line x1="5" y1="19" x2="5" y2="5"/>
    </symbol>
    
    <!-- Playlist Icon -->
    <symbol id="playlist" viewBox="0 0 24 24" fill="none" stroke="currentColor" stroke-width="2">
      <line x1="8" y1="6" x2="21" y2="6"/>
      <line x1="8" y1="12" x2="21" y2="12"/>
      <line x1="8" y1="18" x2="21" y2="18"/>
      <line x1="3" y1="6" x2="3.01" y2="6"/>
      <line x1="3" y1="12" x2="3.01" y2="12"/>
      <line x1="3" y1="18" x2="3.01" y2="18"/>
    </symbol>
    
    <!-- Delete Icon -->
    <symbol id="delete" viewBox="0 0 24 24" fill="none" stroke="currentColor" stroke-width="2">
      <polyline points="3,6 5,6 21,6"/>
      <path d="m19,6v14a2 2 0 0 1-2 2H7a2 2 0 0 1-2-2V6m3 0V4a2 2 0 0 1 2-2h4a2 2 0 0 1 2 2v2"/>
      <line x1="10" y1="11" x2="10" y2="17"/>
      <line x1="14" y1="11" x2="14" y2="17"/>
    </symbol>
    
    <!-- Pencil Icon -->
    <symbol id="pencil" viewBox="0 0 24 24" fill="none" stroke="currentColor" stroke-width="2">
      <path d="M17 3a2.828 2.828 0 1 1 4 4L7.5 20.5 2 22l1.5-5.5L17 3z"/>
    </symbol>
    
    <!-- Arrow Left Icon -->
    <symbol id="arrow-left" viewBox="0 0 24 24" fill="none" stroke="currentColor" stroke-width="2">
      <line x1="19" y1="12" x2="5" y2="12"/>
      <polyline points="12,19 5,12 12,5"/>
    </symbol>
  </defs>
</svg>